<svg width="111px" height="36px" viewBox="0 0 466 154" version="1.1" xmlns="http://www.w3.org/2000/svg" xmlns:xlink="http://www.w3.org/1999/xlink" class="Make_Agency_London_Digital_Creative_Agency">
    <!-- Generator: Sketch 49.3 (51167) - http://www.bohemiancoding.com/sketch -->
    <g id="Page-1" stroke="none" stroke-width="1" fill="none" fill-rule="evenodd">
        <g id="Make_Agency_London_Digital_Creative_Agency" fill="#FFFFFF" fill-rule="nonzero">
            <path d="M0.9,54.3 L29.7,54.3 L29.7,67.5 L30.1,67.5 C31,65.6 32.4,63.8 34.1,61.9 C35.8,60 37.9,58.4 40.3,56.9 C42.7,55.4 45.4,54.2 48.5,53.3 C51.6,52.4 54.9,51.9 58.5,51.9 C65.3,51.9 71.3,53.3 76.6,56.1 C81.9,58.9 85.8,63.3 88.5,69.3 C92,63 96.2,58.6 101.1,55.9 C106,53.2 112.1,51.9 119.3,51.9 C125.8,51.9 131.3,53 135.8,55.2 C140.3,57.4 143.8,60.4 146.4,64.2 C149,68 150.9,72.5 152,77.6 C153.1,82.7 153.7,88.2 153.7,94.1 L153.7,151.5 L123.7,151.5 L123.7,94.9 C123.7,90.4 122.7,86.5 120.8,83.2 C118.9,79.9 115.4,78.3 110.5,78.3 C107,78.3 104.1,78.9 101.8,80 C99.5,81.1 97.6,82.7 96.2,84.7 C94.8,86.7 93.8,89 93.2,91.7 C92.6,94.4 92.3,97.2 92.3,100.1 L92.3,151.5 L62.3,151.5 L62.3,100.1 C62.3,98.4 62.2,96.2 62.1,93.7 C62,91.2 61.5,88.8 60.7,86.5 C59.9,84.2 58.6,82.3 56.8,80.7 C55,79.1 52.4,78.3 48.9,78.3 C45,78.3 41.9,79 39.5,80.4 C37.1,81.8 35.3,83.7 34,86 C32.7,88.3 31.9,91 31.5,93.9 C31.1,96.8 30.9,99.9 30.9,103.1 L30.9,151.5 L0.9,151.5 L0.9,54.3 Z" id="Shape"></path>
            <path d="M229.9,139.3 L229.5,139.3 C226.2,144.5 221.7,148.2 216.2,150.5 C210.7,152.8 204.8,153.9 198.7,153.9 C194.2,153.9 189.8,153.3 185.6,152 C181.4,150.7 177.7,148.8 174.5,146.3 C171.3,143.8 168.8,140.6 166.9,136.9 C165,133.2 164.1,128.8 164.1,123.9 C164.1,118.3 165.1,113.6 167.2,109.7 C169.3,105.8 172.1,102.6 175.6,100.1 C179.1,97.6 183.2,95.6 187.7,94.2 C192.2,92.8 196.9,91.8 201.8,91.1 C206.7,90.4 211.5,90 216.4,89.9 C221.3,89.8 225.8,89.7 229.9,89.7 C229.9,84.4 228,80.1 224.2,77 C220.4,73.9 215.9,72.3 210.7,72.3 C205.8,72.3 201.3,73.3 197.2,75.4 C193.1,77.5 189.5,80.3 186.3,83.9 L170.3,67.5 C175.9,62.3 182.4,58.4 189.9,55.8 C197.4,53.2 205.1,51.9 213.1,51.9 C221.9,51.9 229.1,53 234.8,55.2 C240.5,57.4 245,60.6 248.4,64.9 C251.8,69.2 254.2,74.4 255.5,80.6 C256.8,86.8 257.5,94 257.5,102.1 L257.5,151.5 L229.9,151.5 L229.9,139.3 Z M222.5,108.9 C220.2,108.9 217.4,109 214,109.2 C210.6,109.4 207.3,110 204.2,110.9 C201.1,111.8 198.4,113.2 196.2,115.1 C194,117 192.9,119.6 192.9,122.9 C192.9,126.5 194.4,129.2 197.5,130.9 C200.6,132.6 203.8,133.5 207.1,133.5 C210,133.5 212.9,133.1 215.6,132.3 C218.3,131.5 220.8,130.4 222.9,128.9 C225,127.4 226.7,125.6 228,123.3 C229.3,121 229.9,118.4 229.9,115.3 L229.9,108.9 L222.5,108.9 Z" id="Shape"></path>
            <polygon id="Shape" points="271.3 0.3 301.3 0.3 301.3 92.7 334.5 54.3 371.3 54.3 332.7 98.1 372.3 151.5 334.5 151.5 301.7 102.3 301.3 102.3 301.3 151.5 271.3 151.5"></polygon>
            <path d="M465.3,122 C462.3,129.2 457.8,135.4 451.6,140.6 C445.4,145.8 438.6,149.4 431,151.6 C423.8,153.6 416.7,154.4 409.7,153.8 C402.7,153.3 396.2,151.5 390.4,148.5 C384.5,145.5 379.4,141.4 375,136.1 C370.6,130.8 367.4,124.5 365.3,117 C363.2,109.6 362.7,102.4 363.7,95.6 C364.7,88.8 366.9,82.6 370.4,77 C373.9,71.4 378.5,66.5 384.2,62.4 C389.9,58.3 396.4,55.3 403.5,53.2 C410.2,51.3 416.6,50.8 422.7,51.6 C428.8,52.4 434.4,54.4 439.3,57.6 C444.3,60.8 448.7,65.2 452.4,70.6 C456.1,76.1 459.1,82.5 461.2,90 L463.7,99.1 L396.7,117.9 C399.4,123.1 403.1,126.8 407.9,129 C412.7,131.2 417.9,131.5 423.5,129.9 C428.2,128.6 432,126.4 434.6,123.3 C437.3,120.3 439.4,116.7 440.9,112.7 L465.3,122 Z M429.3,87.6 C428.1,82.7 425.3,79 421,76.4 C416.7,73.9 411.9,73.3 406.6,74.8 C403.4,75.7 400.7,77 398.6,78.7 C396.4,80.4 394.7,82.3 393.4,84.4 C392.1,86.5 391.3,88.7 390.9,91.1 C390.5,93.5 390.6,95.9 391.1,98.2 L429.3,87.6 Z" id="Shape"></path>
        </g>
    </g>
</svg>